<svg width="50" height="51" viewBox="0 0 50 51" fill="none" xmlns="http://www.w3.org/2000/svg">
<path d="M27.6667 8.11914C29.8768 8.11914 31.9964 8.99711 33.5592 10.5599C35.122 12.1227 36 14.2423 36 16.4525C36 18.6626 35.122 20.7822 33.5592 22.345C31.9964 23.9078 29.8768 24.7858 27.6667 24.7858C25.4565 24.7858 23.3369 23.9078 21.7741 22.345C20.2113 20.7822 19.3333 18.6626 19.3333 16.4525C19.3333 14.2423 20.2113 12.1227 21.7741 10.5599C23.3369 8.99711 25.4565 8.11914 27.6667 8.11914ZM27.6667 28.9525C36.875 28.9525 44.3333 32.6816 44.3333 37.2858V41.4525H11V37.2858C11 32.6816 18.4583 28.9525 27.6667 28.9525Z" fill="#242A33"/>
</svg>
